{"title":"Iron Man (2008) 1080p BluRay {1920x1080} Dual Audio {Hindi 2Ch.-","uid":8894075,"size":5193587728,"categoryP":"video","categoryS":"hd___movies","magnet":"?xt=urn:btih:e0a4fbfe862811468e096cebcf6797fef657dee1&amp;dn=Iron+Man+%282008%29+1080p+BluRay+%7B1920x1080%7D+Dual+Audio+%7BHindi+2Ch.-&amp;tr=udp%3A%2F%2Ftracker.openbittorrent.com%3A80&amp;tr=udp%3A%2F%2Fopen.demonii.com%3A1337&amp;tr=udp%3A%2F%2Ftracker.coppersurfer.tk%3A6969&amp;tr=udp%3A%2F%2Fexodus.desync.com%3A6969","seeders":2,"leechers":3,"uploader":"SaNRiM","files":-1,"time":1378656605,"description":"Storyline\n\nTony Stark is the complete playboy who also happens to be an engineering genius. While in Afghanistan demonstrating a new missile, he's captured and wounded. His captors want him to assemble a missile for them but instead he creates an armored suit and a means to prevent his death from the shrapnel left in his chest by the attack. He uses the armored suit to escape. Back in the U.S. he announces his company will cease making weapons and he begins work on an updated armored suit only to find that Obadiah Stane, his second in command at Stark industries has been selling Stark weapons to the insurgents. He uses his new suit to return to Afghanistan to destroy the arms and then to stop Stane from misusing his research.\n\n\n\nTorrent Info\n\nGeneral\n\nUnique ID : 231537388098233693051613095019920081821 (0xAE307A9915390BB48450A72574F1C39D)\nComplete name : Iron Man (2008) 1080p BluRay {1920x1080} Dual Audio {Hindi 2Ch.-English 6Ch.} ~SaNRiM~.mkv\nFormat : Matroska\nFormat version : Version 4 / Version 2\nFile size : 4.84 GiB\nDuration : 2h 6mn\nOverall bit rate : 5 494 Kbps\nEncoded date : UTC 2013-08-31 08:43:51\nWriting application : mkvmerge v6.3.0 ('You can't stop me!') built on Jun 28 2013 20:09:41\nWriting library : libebml v1.3.0 + libmatroska v1.4.0\n\n\nVideo\n\nID : 1\nFormat : AVC\nFormat/Info : Advanced Video Codec\nFormat profile : &lt;a class=&quot;__cf_email__&quot; href=&quot;/cdn-cgi/l/email-protection&quot; data-cfemail=&quot;87cae6eee9c7cbb3a9b7&quot;&gt;[email&amp;#160;protected]&lt;/a&gt;&lt;script cf-hash='f9e31' type=&quot;text/javascript&quot;&gt;\n/* &lt;![CDATA[ */!function(){try{var t=&quot;currentScript&quot;in document?document.currentScript:function(){for(var t=document.getElementsByTagName(&quot;script&quot;),e=t.length;e--;)if(t[e].getAttribute(&quot;cf-hash&quot;))return t[e]}();if(t&amp;&amp;t.previousSibling){var e,r,n,i,c=t.previousSibling,a=c.getAttribute(&quot;data-cfemail&quot;);if(a){for(e=&quot;&quot;,r=parseInt(a.substr(0,2),16),n=2;a.length-n;n+=2)i=parseInt(a.substr(n,2),16)^r,e+=String.fromCharCode(i);e=document.createTextNode(e),c.parentNode.replaceChild(e,c)}}}catch(u){}}();/* ]]&gt; */&lt;/script&gt;\nFormat settings, CABAC : Yes\nFormat settings, ReFrames : 4 frames\nCodec ID : V_MPEG4/ISO/AVC\nDuration : 2h 6mn\nBit rate : 4 617 Kbps\nWidth : 1 920 pixels\nHeight : 1 080 pixels\nDisplay aspect ratio : 16:9\nFrame rate mode : Constant\nFrame rate : 23.976 fps\nColor space : YUV\nChroma subsampling : 4:2:0\nBit depth : 8 bits\nScan type : Progressive\nBits/(Pixel*Frame) : 0.093\nStream size : 4.06 GiB (84%)\nTitle : ~SaNRiM~\nWriting library : x264 core 130 r2273 b3065e6\nLanguage : English\nDefault : Yes\nForced : No\nColor primaries : BT.709\nTransfer characteristics : BT.709\nMatrix coefficients : BT.709\n\n\nAudio #1\n\nID : 2\nFormat : MPEG Audio\nFormat version : Version 1\nFormat profile : Layer 3\nMode : Joint stereo\nMode extension : MS Stereo\nCodec ID : A_MPEG/L3\nCodec ID/Hint : MP3\nDuration : 2h 6mn\nBit rate mode : Constant\nBit rate : 320 Kbps\nChannel(s) : 2 channels\nSampling rate : 44.1 KHz\nCompression mode : Lossy\nStream size : 288 MiB (6%)\nTitle : ~SaNRiM~\nWriting library : LAME3.96.1\nLanguage : Hindi\nDefault : Yes\nForced : No\n\n\nAudio #2\n\nID : 3\nFormat : AC-3\nFormat/Info : Audio Coding 3\nMode extension : CM (complete main)\nFormat settings, Endianness : Big\nCodec ID : A_AC3\nDuration : 2h 6mn\nBit rate mode : Constant\nBit rate : 448 Kbps\nChannel(s) : 6 channels\nChannel positions : Front: L C R, Side: L R, LFE\nSampling rate : 48.0 KHz\nBit depth : 16 bits\nCompression mode : Lossy\nStream size : 404 MiB (8%)\nTitle : ~SaNRiM~\nLanguage : English\nDefault : No\nForced : No\n\n\n\nScreens\n &lt;a href=&quot;\nhttp://cdn.piczend.com/images/kXC5tqGl/1378433213_vlcsnap-2013-09-02-19h24m20s63.png&quot; rel=&quot;nofollow&quot; target=&quot;_NEW&quot;&gt;\nhttp://cdn.piczend.com/images/kXC5tqGl/1378433213_vlcsnap-2013-09-02-19h24m20s63.png&lt;/a&gt; &lt;a href=&quot;\nhttp://cdn.piczend.com/images/gGPjasRP/1378433128_vlcsnap-2013-09-02-19h24m43s40.png&quot; rel=&quot;nofollow&quot; target=&quot;_NEW&quot;&gt;\nhttp://cdn.piczend.com/images/gGPjasRP/1378433128_vlcsnap-2013-09-02-19h24m43s40.png&lt;/a&gt; &lt;a href=&quot;\nhttp://cdn.piczend.com/images/YfjpquZW/1378433141_vlcsnap-2013-09-02-19h24m57s184.png&quot; rel=&quot;nofollow&quot; target=&quot;_NEW&quot;&gt;\nhttp://cdn.piczend.com/images/YfjpquZW/1378433141_vlcsnap-2013-09-02-19h24m57s184.png&lt;/a&gt; &lt;a href=&quot;\nhttp://cdn.piczend.com/images/Yjm6r6mg/1378433209_vlcsnap-2013-09-02-19h25m15s108.png&quot; rel=&quot;nofollow&quot; target=&quot;_NEW&quot;&gt;\nhttp://cdn.piczend.com/images/Yjm6r6mg/1378433209_vlcsnap-2013-09-02-19h25m15s108.png&lt;/a&gt; &lt;a href=&quot;\nhttp://cdn.piczend.com/images/mqC6jVX3/1378433210_vlcsnap-2013-09-02-19h25m23s184.png&quot; rel=&quot;nofollow&quot; target=&quot;_NEW&quot;&gt;\nhttp://cdn.piczend.com/images/mqC6jVX3/1378433210_vlcsnap-2013-09-02-19h25m23s184.png&lt;/a&gt; &lt;a href=&quot;\nhttp://cdn.piczend.com/images/ZcRswW1L/1378433219_vlcsnap-2013-09-02-19h26m09s127.png&quot; rel=&quot;nofollow&quot; target=&quot;_NEW&quot;&gt;\nhttp://cdn.piczend.com/images/ZcRswW1L/1378433219_vlcsnap-2013-09-02-19h26m09s127.png&lt;/a&gt; &lt;a href=&quot;\nhttp://cdn.piczend.com/images/ZWQKMgaY/1378433168_vlcsnap-2013-09-02-19h26m16s200.png&quot; rel=&quot;nofollow&quot; target=&quot;_NEW&quot;&gt;\nhttp://cdn.piczend.com/images/ZWQKMgaY/1378433168_vlcsnap-2013-09-02-19h26m16s200.png&lt;/a&gt; &lt;a href=&quot;\nhttp://cdn.piczend.com/images/Nypx9AwK/1378433140_vlcsnap-2013-09-02-19h26m35s139.png&quot; rel=&quot;nofollow&quot; target=&quot;_NEW&quot;&gt;\nhttp://cdn.piczend.com/images/Nypx9AwK/1378433140_vlcsnap-2013-09-02-19h26m35s139.png&lt;/a&gt; &lt;a href=&quot;\nhttp://cdn.piczend.com/images/NNBY0AG3/1378433162_vlcsnap-2013-09-02-19h26m42s208.png&quot; rel=&quot;nofollow&quot; target=&quot;_NEW&quot;&gt;\nhttp://cdn.piczend.com/images/NNBY0AG3/1378433162_vlcsnap-2013-09-02-19h26m42s208.png&lt;/a&gt; &lt;a href=&quot;\nhttp://cdn.piczend.com/images/qFwREv9M/1378433215_vlcsnap-2013-09-02-19h27m04s172.png&quot; rel=&quot;nofollow&quot; target=&quot;_NEW&quot;&gt;\nhttp://cdn.piczend.com/images/qFwREv9M/1378433215_vlcsnap-2013-09-02-19h27m04s172.png&lt;/a&gt; &lt;a href=&quot;\nhttp://cdn.piczend.com/images/3nAfaxGM/1378433233_vlcsnap-2013-09-02-19h27m11s244.png&quot; rel=&quot;nofollow&quot; target=&quot;_NEW&quot;&gt;\nhttp://cdn.piczend.com/images/3nAfaxGM/1378433233_vlcsnap-2013-09-02-19h27m11s244.png&lt;/a&gt; &lt;a href=&quot;\nhttp://cdn.piczend.com/images/1DAvrnkl/1378433234_vlcsnap-2013-09-02-19h27m53s147.png&quot; rel=&quot;nofollow&quot; target=&quot;_NEW&quot;&gt;\nhttp://cdn.piczend.com/images/1DAvrnkl/1378433234_vlcsnap-2013-09-02-19h27m53s147.png&lt;/a&gt; &lt;a href=&quot;\nhttp://cdn.piczend.com/images/FEeRY8qO/1378433225_vlcsnap-2013-09-02-19h28m09s51.png&quot; rel=&quot;nofollow&quot; target=&quot;_NEW&quot;&gt;\nhttp://cdn.piczend.com/images/FEeRY8qO/1378433225_vlcsnap-2013-09-02-19h28m09s51.png&lt;/a&gt; &lt;a href=&quot;\nhttp://cdn.piczend.com/images/9rxNm3G8/1378433211_vlcsnap-2013-09-02-19h28m18s142.png&quot; rel=&quot;nofollow&quot; target=&quot;_NEW&quot;&gt;\nhttp://cdn.piczend.com/images/9rxNm3G8/1378433211_vlcsnap-2013-09-02-19h28m18s142.png&lt;/a&gt; &lt;a href=&quot;\nhttp://cdn.piczend.com/images/NDNdXM0T/1378433176_vlcsnap-2013-09-03-16h45m51s209.png&quot; rel=&quot;nofollow&quot; target=&quot;_NEW&quot;&gt;\nhttp://cdn.piczend.com/images/NDNdXM0T/1378433176_vlcsnap-2013-09-03-16h45m51s209.png&lt;/a&gt;\n\n\n\n                    If you like my work please comment\n                          Any request? Just PM me\n                       Please seed long after download\n                         Thank you &amp; enjoy the best\n                                 ~SaNRiM~ \t","torrent":{"xt":"urn:btih:e0a4fbfe862811468e096cebcf6797fef657dee1","amp;dn":"Iron+Man+%282008%29+1080p+BluRay+%7B1920x1080%7D+Dual+Audio+%7BHindi+2Ch.-","amp;tr":["udp%3A%2F%2Ftracker.openbittorrent.com%3A80","udp%3A%2F%2Fopen.demonii.com%3A1337","udp%3A%2F%2Ftracker.coppersurfer.tk%3A6969","udp%3A%2F%2Fexodus.desync.com%3A6969"],"infoHash":"e0a4fbfe862811468e096cebcf6797fef657dee1","infoHashBuffer":{"type":"Buffer","data":[224,164,251,254,134,40,17,70,142,9,108,235,207,103,151,254,246,87,222,225]},"announce":[],"urlList":[]}}